<?xml version="1.0" standalone="no"?>
<!DOCTYPE svg PUBLIC "-//W3C//DTD SVG 20010904//EN"
 "http://www.w3.org/TR/2001/REC-SVG-20010904/DTD/svg10.dtd">
<svg version="1.0" xmlns="http://www.w3.org/2000/svg"
 width="321.000000pt" height="157.000000pt" viewBox="0 0 321.000000 157.000000"
 preserveAspectRatio="xMidYMid meet">

<g transform="translate(0.000000,157.000000) scale(0.100000,-0.100000)"
fill="#000000" stroke="none">
<path d="M38 1539 c-10 -5 -18 -17 -18 -24 0 -11 5 -10 20 5 20 20 40 26 40
12 0 -4 17 -15 38 -25 20 -10 48 -24 62 -32 23 -14 27 -13 51 15 15 17 36 30
48 30 25 0 27 -15 6 -37 -9 -8 -13 -23 -10 -33 4 -13 -3 -19 -27 -27 -33 -9
-33 -9 -10 -22 12 -6 46 -14 75 -16 28 -2 52 -4 52 -5 0 -3 38 -10 88 -17 27
-3 47 -2 47 4 0 5 -17 8 -37 6 -31 -2 -33 -1 -13 5 21 7 17 10 -34 20 -33 7
-70 12 -82 12 -16 0 -22 5 -18 14 3 7 -2 20 -10 29 -14 13 -14 16 -1 27 22 18
18 38 -7 45 -13 4 -31 9 -40 11 -12 4 -18 0 -18 -10 0 -9 -7 -16 -15 -16 -8 0
-15 -6 -15 -14 0 -9 -7 -12 -21 -9 -14 4 -17 9 -10 16 17 17 13 47 -6 47 -13
0 -15 -2 -5 -8 7 -5 10 -16 6 -25 -9 -25 -24 -20 -24 8 0 14 -4 25 -9 25 -5 0
-7 -9 -4 -20 3 -11 0 -20 -6 -20 -6 0 -11 5 -11 10 0 6 -7 10 -15 10 -8 0 -15
5 -15 10 0 13 -30 12 -52 -1z"/>
<path d="M200 1397 c23 -19 51 -77 44 -90 -5 -9 -4 -9 6 0 25 23 -19 104 -57
103 -4 0 -1 -6 7 -13z"/>
<path d="M526 1365 c4 -8 10 -15 15 -15 4 0 6 7 3 15 -4 8 -10 15 -15 15 -4 0
-6 -7 -3 -15z"/>
<path d="M592 1361 c-11 -7 -10 -10 3 -15 25 -9 55 -7 55 4 0 6 -11 8 -26 4
-19 -5 -25 -4 -20 5 8 13 6 14 -12 2z"/>
<path d="M2716 1352 c-3 -3 -6 -17 -6 -30 0 -24 -1 -25 -20 -7 -19 18 -20 17
-20 -3 0 -15 -5 -20 -15 -16 -9 4 -15 0 -15 -9 0 -13 6 -13 38 -4 20 6 40 16
44 21 4 6 10 3 14 -7 7 -19 54 -24 54 -6 0 8 4 8 14 -1 17 -13 62 -10 59 5 -1
5 -7 11 -14 14 -7 2 -9 -1 -5 -8 10 -15 -6 -14 -29 3 -17 12 -21 12 -31 -2
-15 -21 -37 -5 -30 23 4 17 1 24 -14 28 -10 3 -21 2 -24 -1z"/>
<path d="M660 1340 c0 -6 11 -8 25 -4 14 3 31 2 38 -4 7 -6 26 -7 47 -3 l35 7
-40 7 c-58 10 -105 8 -105 -3z"/>
<path d="M811 1326 c11 -9 69 -15 64 -6 -3 6 -20 10 -37 10 -17 0 -29 -2 -27
-4z"/>
<path d="M2884 1319 c-15 -25 -14 -87 1 -93 17 -6 20 5 5 20 -7 7 -6 22 5 47
14 34 6 53 -11 26z"/>
<path d="M178 1287 c-31 -32 -35 -52 -13 -61 20 -7 19 -25 -2 -33 -25 -9 -53
-39 -53 -58 0 -19 36 -20 43 -1 4 9 14 12 26 9 12 -3 17 -11 14 -19 -3 -8 0
-21 7 -29 17 -21 6 -32 -41 -38 -61 -8 -76 -40 -24 -49 19 -4 25 -1 25 12 0
13 -6 17 -22 14 -21 -4 -22 -4 -3 5 11 5 35 10 54 10 33 1 33 2 28 35 l-5 34
59 4 c32 1 59 0 59 -4 0 -10 75 -8 115 2 30 8 30 8 3 9 -20 1 -25 5 -21 20 4
15 11 17 44 11 36 -7 39 -5 39 15 0 12 9 30 20 40 19 17 20 17 33 -15 11 -24
16 -28 20 -16 8 20 23 21 31 0 4 -11 -1 -18 -14 -21 -11 -3 -20 -9 -20 -13 0
-5 9 -6 20 -3 15 4 20 0 20 -16 0 -22 -9 -27 -25 -13 -6 5 -23 6 -40 2 -27 -5
-24 -7 23 -13 31 -5 50 -12 47 -18 -4 -6 8 -8 32 -5 21 2 45 5 53 5 11 1 15
14 15 51 1 27 4 52 7 56 15 14 38 -26 38 -65 0 -39 19 -60 21 -23 3 40 5 46
18 50 8 3 12 -1 9 -9 -3 -8 -1 -22 3 -31 7 -12 4 -20 -8 -27 -15 -9 -13 -10
12 -10 17 0 25 3 18 5 -22 9 -1 34 29 34 25 0 29 -4 27 -22 -4 -26 7 -48 24
-48 8 0 8 3 -1 12 -7 7 -12 25 -12 40 0 23 -5 28 -25 29 -14 1 -31 2 -37 3 -7
0 -15 18 -19 40 -7 41 -21 56 -56 56 -38 0 -63 -34 -63 -86 l0 -46 -32 6 c-45
9 -56 30 -18 34 39 4 38 19 0 27 -23 5 -30 12 -30 29 0 53 -84 77 -114 34 -9
-12 -16 -31 -16 -41 0 -16 -5 -18 -32 -12 -45 10 -48 13 -48 40 0 38 -29 65
-71 65 -40 0 -69 -24 -69 -57 0 -12 -6 -24 -12 -27 -10 -5 -10 -7 0 -12 17 -8
15 -34 -2 -34 -8 0 -16 -6 -19 -12 -6 -19 -37 10 -37 34 0 15 5 19 20 15 12
-3 20 0 20 7 0 6 -10 13 -22 13 -13 1 -27 8 -33 16 -5 8 -17 16 -25 20 -11 4
-10 7 8 12 12 4 22 12 22 17 0 5 5 6 10 3 6 -3 10 3 10 14 0 30 -12 30 -42 -2z
m164 -63 l12 -25 17 22 c20 26 39 18 39 -18 0 -22 -3 -25 -30 -21 -21 3 -30 0
-30 -9 0 -10 10 -13 32 -11 18 2 33 -2 35 -9 3 -7 -3 -13 -12 -13 -9 0 -13 -4
-10 -10 4 -6 -7 -10 -27 -9 -18 1 -25 3 -15 6 37 10 5 20 -34 12 -23 -6 -44
-7 -47 -4 -3 3 0 5 6 5 7 0 12 16 12 39 0 22 3 46 6 55 9 24 33 19 46 -10z
m478 -40 c0 -8 -10 -14 -22 -13 -13 0 -17 3 -10 6 10 4 9 8 -5 18 -16 12 -15
13 10 8 15 -3 27 -12 27 -19z m-630 -14 c0 -13 -5 -18 -15 -14 -8 3 -22 -1
-31 -11 -9 -9 -18 -14 -21 -11 -9 8 35 46 65 55 1 1 2 -8 2 -19z"/>
<path d="M900 1311 c0 -6 5 -13 10 -16 6 -3 10 1 10 9 0 9 -4 16 -10 16 -5 0
-10 -4 -10 -9z"/>
<path d="M660 1290 c0 -5 7 -10 15 -10 8 0 15 5 15 10 0 6 -7 10 -15 10 -8 0
-15 -4 -15 -10z"/>
<path d="M1028 1293 c6 -2 18 -2 25 0 6 3 1 5 -13 5 -14 0 -19 -2 -12 -5z"/>
<path d="M1078 1283 c6 -2 18 -2 25 0 6 3 1 5 -13 5 -14 0 -19 -2 -12 -5z"/>
<path d="M1038 1273 c7 -3 16 -2 19 1 4 3 -2 6 -13 5 -11 0 -14 -3 -6 -6z"/>
<path d="M1170 1270 c0 -5 15 -10 33 -10 25 0 29 -3 17 -11 -12 -9 -12 -10 3
-5 10 3 33 6 50 7 24 0 16 4 -28 14 -75 17 -75 17 -75 5z"/>
<path d="M2610 1265 c0 -8 4 -15 9 -15 5 0 11 -10 13 -22 2 -18 11 -24 36 -26
40 -4 41 -16 2 -39 -16 -9 -30 -26 -30 -36 0 -10 -5 -17 -12 -14 -7 2 -13 9
-13 15 0 5 -3 14 -7 18 -14 13 -8 -22 6 -42 11 -14 17 -16 27 -7 6 6 17 9 24
7 7 -3 16 -1 20 5 3 6 21 11 39 11 17 0 38 6 45 13 11 10 13 9 7 -6 -3 -10 -6
-21 -6 -23 0 -3 -12 -9 -26 -14 -24 -9 -25 -30 -2 -30 6 0 9 2 6 5 -3 3 8 20
23 36 35 38 35 41 3 56 -23 10 -24 10 -19 -8 6 -18 3 -20 -34 -15 -23 3 -41 1
-41 -5 0 -5 -4 -9 -10 -9 -5 0 -10 7 -10 15 0 8 4 15 8 15 15 0 53 41 47 51
-4 5 -19 9 -36 9 -23 0 -29 4 -29 23 0 12 -9 28 -20 35 -17 10 -20 10 -20 -3z"/>
<path d="M1095 1260 c19 -8 73 -14 64 -6 -2 2 -22 6 -44 9 -28 5 -34 4 -20 -3z"/>
<path d="M1338 1243 c6 -2 18 -2 25 0 6 3 1 5 -13 5 -14 0 -19 -2 -12 -5z"/>
<path d="M3110 1230 c-6 -11 -17 -20 -25 -20 -8 0 -15 -9 -15 -20 0 -11 -6
-20 -14 -20 -28 0 -46 12 -46 30 0 22 -15 34 -30 25 -8 -5 -7 -11 1 -21 15
-19 -15 -31 -36 -14 -10 8 -15 9 -15 2 0 -16 9 -19 83 -27 54 -5 67 -4 67 7 0
8 12 25 26 39 25 23 26 23 15 2 -10 -19 -7 -24 24 -43 19 -12 35 -27 35 -34 0
-16 -42 -36 -74 -36 -19 0 -25 -7 -29 -32 -6 -40 -2 -48 24 -48 10 0 19 -7 19
-15 0 -8 5 -15 10 -15 15 0 12 40 -2 41 -7 1 -17 2 -23 4 -5 1 -14 3 -20 4 -5
1 1 8 15 16 14 8 19 14 13 15 -21 0 -15 20 6 20 30 0 82 33 76 48 -3 8 -5 20
-5 28 0 8 -6 11 -15 8 -9 -4 -15 0 -15 10 0 9 -8 16 -17 16 -16 1 -15 3 4 19
19 16 20 20 7 25 -25 10 -33 7 -44 -14z"/>
<path d="M1248 1233 c7 -3 16 -2 19 1 4 3 -2 6 -13 5 -11 0 -14 -3 -6 -6z"/>
<path d="M1010 1210 c0 -5 4 -10 9 -10 6 0 13 5 16 10 3 6 -1 10 -9 10 -9 0
-16 -4 -16 -10z"/>
<path d="M1438 1203 c6 -2 18 -2 25 0 6 3 1 5 -13 5 -14 0 -19 -2 -12 -5z"/>
<path d="M1550 1200 c0 -5 5 -10 10 -10 6 0 10 5 10 10 0 6 -4 10 -10 10 -5 0
-10 -4 -10 -10z"/>
<path d="M917 1182 c-17 -19 -23 -43 -9 -41 25 4 32 -4 32 -36 0 -19 4 -35 9
-35 5 0 8 7 7 16 0 9 5 19 12 21 7 3 12 -5 13 -19 1 -17 3 -18 6 -5 3 12 15
17 39 17 21 0 33 4 29 10 -3 6 -19 10 -36 10 -24 0 -29 4 -29 24 0 26 -23 56
-44 56 -7 0 -20 -8 -29 -18z"/>
<path d="M1622 1193 c-20 -8 -3 -23 26 -22 25 0 25 1 7 10 -16 7 -12 8 14 4
18 -3 38 -5 43 -5 5 0 7 -4 4 -9 -3 -5 7 -11 22 -13 54 -8 30 20 -26 31 -59
12 -70 12 -90 4z"/>
<path d="M1094 1162 c-6 -4 -14 -15 -17 -26 -5 -13 -3 -17 7 -13 8 3 21 -4 30
-18 21 -31 20 -45 -1 -46 -10 -1 -2 -5 17 -9 l35 -7 -35 -2 c-71 -3 -5 -19
105 -24 88 -4 98 -4 50 4 -68 10 -90 17 -57 18 18 1 22 7 22 31 0 30 13 40 25
20 4 -6 11 -8 16 -4 6 4 4 13 -6 24 -12 14 -13 20 -4 26 7 4 10 3 6 -3 -4 -6
-1 -13 7 -16 19 -7 30 -69 14 -79 -8 -5 1 -7 22 -7 19 1 27 3 17 6 -13 3 -17
11 -14 24 3 10 0 19 -5 19 -6 0 -4 8 3 17 12 14 12 16 0 8 -11 -6 -13 -4 -8 7
7 20 -11 38 -38 38 -31 0 -45 -19 -45 -61 0 -31 -4 -37 -24 -41 -24 -5 -46 7
-46 24 0 4 14 8 32 8 50 0 26 11 -27 12 -48 1 -48 1 -25 18 14 10 19 20 12 24
-6 3 -13 0 -16 -6 -3 -7 -3 -1 0 15 5 23 3 27 -17 27 -13 0 -29 -4 -35 -8z
m66 -92 c0 -5 -4 -10 -10 -10 -5 0 -10 5 -10 10 0 6 5 10 10 10 6 0 10 -4 10
-10z"/>
<path d="M1340 1160 c0 -5 5 -10 10 -10 6 0 10 5 10 10 0 6 -4 10 -10 10 -5 0
-10 -4 -10 -10z"/>
<path d="M1805 1160 c-4 -7 2 -9 19 -4 16 4 32 1 41 -6 8 -7 15 -9 15 -4 0 4
5 3 12 -4 14 -14 38 -16 38 -4 0 10 -68 32 -98 32 -11 0 -24 -5 -27 -10z"/>
<path d="M1945 1130 c-4 -6 7 -10 27 -10 18 -1 60 -7 93 -15 79 -19 87 -18 45
5 -23 13 -46 18 -65 14 -23 -4 -26 -3 -15 5 11 8 4 11 -32 11 -26 0 -50 -4
-53 -10z"/>
<path d="M1398 1119 c-10 -5 -18 -17 -18 -25 0 -9 5 -12 11 -8 6 3 15 0 20 -7
14 -22 10 -49 -6 -49 -8 0 -15 8 -15 18 0 14 -2 15 -10 2 -13 -21 -3 -27 68
-34 l62 -6 0 30 c0 36 25 41 34 8 5 -19 8 -20 15 -8 9 12 11 12 16 -2 4 -10 4
-21 1 -26 -7 -12 144 -45 224 -48 36 -1 72 -5 80 -8 8 -3 41 -9 73 -14 44 -7
60 -6 68 5 9 10 8 13 -5 13 -9 0 -16 5 -16 11 0 6 7 8 16 5 12 -5 14 -1 9 17
-4 12 -13 28 -20 35 -17 19 -45 -11 -44 -46 l2 -27 4 28 c5 34 23 36 23 2 0
-27 -31 -48 -38 -27 -2 7 -14 12 -27 12 -24 0 -42 16 -30 28 3 3 10 0 15 -8 6
-9 10 -10 10 -3 0 6 8 14 18 16 16 4 16 5 0 6 -10 0 -18 7 -18 15 0 24 -41 31
-57 10 -9 -12 -9 -20 -3 -24 6 -4 8 -14 4 -23 -3 -9 -10 -14 -15 -12 -4 3 -25
7 -45 9 -19 1 -40 9 -45 17 -7 11 -9 10 -9 -4 0 -24 -33 -19 -38 6 -2 12 3 17
20 18 22 1 22 2 -4 12 -16 6 -28 19 -28 28 0 22 -36 34 -55 19 -17 -14 -21
-35 -5 -25 6 3 13 -1 16 -9 3 -9 15 -16 26 -16 29 0 17 -22 -14 -26 -18 -2
-28 3 -31 14 -4 15 -5 15 -6 -1 -1 -15 -4 -16 -22 -7 -16 9 -18 14 -8 26 8 10
8 14 0 14 -6 0 -11 5 -11 11 0 16 -31 38 -52 39 -10 0 -23 -9 -30 -20 -18 -29
-48 -26 -48 5 0 14 -8 29 -19 35 -23 12 -22 12 -43 -1z m49 -25 c-3 -3 -12 -4
-19 -1 -8 3 -5 6 6 6 11 1 17 -2 13 -5z m5 -56 c-15 -15 -24 -6 -16 16 5 12
10 14 17 7 8 -8 8 -14 -1 -23z m48 -3 c0 -8 -6 -15 -14 -15 -17 0 -28 14 -19
24 12 12 33 6 33 -9z"/>
<path d="M2156 1108 c3 -4 17 -8 32 -9 24 0 25 -1 7 -9 -18 -8 -17 -9 7 -9 14
-1 35 -4 45 -7 15 -5 15 -4 3 5 -13 9 -13 11 3 11 9 0 17 -4 17 -9 0 -5 12 -9
28 -9 15 0 46 -5 70 -11 23 -7 47 -9 52 -6 6 3 10 1 10 -4 0 -6 16 -11 35 -11
19 0 35 4 35 10 0 5 -3 9 -7 8 -12 -2 -126 13 -143 19 -30 12 -199 39 -194 31z"/>
<path d="M455 1100 c17 -4 46 -8 65 -8 l35 0 -30 8 c-16 4 -46 8 -65 8 l-35 0
30 -8z"/>
<path d="M1076 1083 c10 -40 14 -41 14 -5 0 18 -5 32 -10 32 -6 0 -8 -11 -4
-27z"/>
<path d="M2923 1077 c-12 -6 -24 -19 -26 -29 -6 -22 -35 -24 -43 -3 -6 15 -34
21 -34 7 0 -12 56 -42 65 -34 4 4 2 -3 -4 -15 -8 -15 -21 -23 -38 -23 -25 0
-26 -1 -8 -20 15 -16 16 -22 5 -35 -7 -9 -10 -18 -7 -21 9 -10 27 34 21 50 -8
20 5 20 31 2 31 -21 121 -30 156 -16 37 16 32 24 -6 10 -32 -12 -117 -3 -142
15 -17 13 -17 14 0 32 9 11 17 25 17 31 0 7 9 12 21 12 15 0 19 5 15 16 -3 8
-2 13 3 10 5 -3 11 1 15 9 6 17 -9 18 -41 2z"/>
<path d="M314 1059 c-3 -6 -2 -15 3 -20 5 -5 9 -1 9 11 0 23 -2 24 -12 9z"/>
<path d="M1757 1056 c-4 -9 -2 -16 3 -16 6 0 10 -7 10 -16 0 -11 6 -14 20 -9
11 4 20 2 20 -4 0 -6 7 -8 16 -4 9 3 12 9 7 12 -4 3 -13 15 -19 26 -14 25 -49
31 -57 11z m43 -12 c0 -8 -5 -12 -10 -9 -6 4 -8 11 -5 16 9 14 15 11 15 -7z"/>
<path d="M460 1041 c-39 -22 -53 -29 -76 -36 -11 -3 -14 -12 -11 -25 3 -11 1
-20 -4 -20 -5 0 -9 -7 -9 -16 0 -12 5 -10 20 9 11 14 20 30 20 36 0 19 17 12
23 -9 3 -11 1 -20 -4 -20 -14 0 -11 -28 3 -32 7 -3 13 -13 13 -24 0 -14 8 -20
33 -22 19 -2 32 -9 32 -17 0 -13 -14 -19 -63 -27 -16 -3 -15 -7 11 -36 17 -19
34 -34 39 -34 4 0 10 -2 13 -5 3 -3 -13 -1 -35 3 -36 6 -39 6 -26 -9 9 -12 10
-17 2 -17 -7 0 -10 -4 -7 -9 4 -5 -8 -13 -26 -17 -32 -8 -39 -9 -82 -13 -15
-1 -17 -6 -12 -28 4 -15 3 -29 -4 -33 -14 -9 -2 -40 16 -40 8 0 14 -4 14 -10
0 -5 -19 -10 -42 -11 -39 0 -41 -1 -18 -10 13 -6 35 -7 47 -4 13 3 23 1 23 -3
0 -5 20 -8 45 -8 25 1 45 2 45 3 0 8 -65 31 -74 26 -6 -4 -5 0 2 9 11 14 10
17 -9 20 -17 2 -22 10 -24 41 l-2 38 45 -7 c32 -5 43 -4 38 5 -4 6 -3 11 3 11
5 0 13 -4 16 -10 11 -19 22 -10 20 15 -2 14 1 23 5 20 5 -3 21 5 36 18 l26 23
-26 17 c-24 16 -36 47 -18 47 5 0 17 6 27 14 16 12 17 16 6 30 -7 9 -24 16
-37 16 -13 0 -24 5 -24 10 0 6 5 10 10 10 6 0 10 5 10 10 0 6 -9 10 -20 10
-21 0 -27 24 -9 35 7 5 5 13 -6 25 -15 16 -13 18 19 34 49 23 76 20 146 -16
83 -42 132 -112 138 -199 3 -36 0 -64 -7 -73 -9 -10 -9 -16 -1 -21 7 -4 10
-30 9 -63 -2 -31 1 -57 7 -59 5 -2 9 24 9 59 0 59 1 63 24 66 15 3 30 -3 38
-14 12 -16 13 -16 13 -1 0 11 8 17 23 18 20 0 20 1 3 8 -11 4 -23 16 -27 27
-7 17 -8 17 -8 2 -1 -14 -9 -17 -36 -15 -30 2 -35 5 -35 28 0 21 4 26 23 24
12 -1 14 0 5 2 -10 3 -23 22 -30 46 -6 23 -18 52 -26 65 -13 20 -12 22 2 22
11 0 14 -5 10 -12 -5 -8 0 -9 17 -4 13 4 29 8 36 8 30 3 -43 79 -102 108 -68
33 -175 38 -225 11z m164 -17 c5 -14 4 -15 -9 -4 -17 14 -19 20 -6 20 5 0 12
-7 15 -16z m43 0 c-3 -3 -12 -4 -19 -1 -8 3 -5 6 6 6 11 1 17 -2 13 -5z m57
-29 c10 -7 15 -18 11 -24 -3 -7 0 -8 9 -5 8 3 19 -2 24 -13 9 -17 7 -18 -29
-15 -21 2 -37 8 -34 12 3 5 -1 11 -7 13 -7 3 -4 6 7 6 16 1 17 3 5 10 -8 6
-18 7 -24 4 -5 -4 -6 -1 -1 7 5 9 2 10 -14 5 -12 -4 -21 -2 -21 4 0 16 52 13
74 -4z"/>
<path d="M975 1050 c-3 -5 3 -10 15 -10 12 0 18 5 15 10 -3 6 -10 10 -15 10
-5 0 -12 -4 -15 -10z"/>
<path d="M1035 1050 c-16 -7 -17 -9 -3 -9 9 -1 20 4 23 9 7 11 7 11 -20 0z"/>
<path d="M2523 1045 c3 -17 69 -32 129 -30 32 1 55 -2 52 -7 -3 -4 -2 -8 3 -9
4 0 16 -2 26 -4 9 -2 17 1 17 6 0 5 19 10 43 10 23 1 32 4 20 6 -15 3 -23 12
-23 24 0 11 -7 19 -17 19 -12 0 -14 -3 -6 -8 7 -4 9 -13 4 -20 -5 -9 -16 -9
-42 -2 -18 6 -63 8 -99 6 -40 -4 -55 -2 -40 3 22 7 19 8 -22 12 -27 2 -46 0
-45 -6z"/>
<path d="M190 1027 c-25 -10 -24 -10 10 -16 l35 -6 -32 -33 c-38 -39 -39 -42
-14 -42 27 0 34 -27 15 -56 -9 -13 -14 -27 -11 -31 8 -8 67 17 67 28 0 5 7 9
15 9 9 0 15 9 15 22 0 17 3 19 12 10 15 -15 58 -16 58 -2 0 6 -9 10 -20 10
-11 0 -20 4 -20 9 0 5 -9 7 -20 4 -11 -3 -20 -10 -20 -16 0 -11 -50 -57 -62
-57 -14 0 -8 18 7 24 20 7 19 18 -4 42 -18 20 -18 21 0 45 22 29 23 36 6 53
-9 10 -19 10 -37 3z"/>
<path d="M814 996 c-8 -22 3 -33 18 -18 9 9 9 15 0 24 -9 9 -13 7 -18 -6z"/>
<path d="M1398 1003 c12 -2 30 -2 40 0 9 3 -1 5 -23 4 -22 0 -30 -2 -17 -4z"/>
<path d="M2067 1003 c-4 -3 -7 -15 -7 -25 0 -10 -4 -18 -9 -18 -5 0 -11 -6
-14 -13 -3 -9 5 -13 27 -14 17 -1 25 1 19 3 -18 8 -16 24 1 24 8 0 17 8 20 18
3 9 4 5 2 -10 -3 -23 1 -28 17 -28 16 0 18 3 9 12 -7 7 -12 22 -12 35 0 17 -6
23 -23 23 -13 0 -27 -3 -30 -7z"/>
<path d="M2166 994 c-3 -9 -3 -20 0 -25 3 -6 0 -16 -6 -24 -9 -11 -7 -15 12
-19 53 -11 201 -25 209 -20 18 10 10 63 -11 74 -24 13 -27 -2 -4 -24 8 -9 12
-20 9 -26 -11 -18 -25 -11 -26 13 l-1 22 -6 -22 c-5 -15 -11 -20 -20 -14 -7 4
-24 6 -38 3 -17 -3 -24 0 -24 10 0 11 7 14 24 11 13 -3 27 1 31 8 6 9 3 11 -8
6 -10 -3 -17 -2 -17 3 0 13 -41 13 -60 0 -13 -8 -12 -10 3 -10 9 0 17 -7 17
-15 0 -26 -29 -16 -36 13 -10 46 -13 52 -28 52 -7 0 -17 -7 -20 -16z"/>
<path d="M262 988 c-7 -7 -12 -17 -12 -22 0 -6 5 -3 11 6 5 10 16 15 24 12 8
-4 15 -1 15 5 0 15 -23 14 -38 -1z"/>
<path d="M930 990 c0 -5 7 -10 15 -10 8 0 15 5 15 10 0 6 -7 10 -15 10 -8 0
-15 -4 -15 -10z"/>
<path d="M1488 993 c6 -2 18 -2 25 0 6 3 1 5 -13 5 -14 0 -19 -2 -12 -5z"/>
<path d="M1105 985 c-5 -2 -23 -6 -39 -10 -28 -6 -106 -79 -106 -99 0 -6 20
11 43 37 39 41 49 47 85 47 52 0 105 -27 127 -63 16 -27 35 -201 30 -279 -1
-15 2 -28 7 -28 4 0 8 -5 8 -11 0 -7 -15 -9 -40 -6 -22 2 -43 1 -46 -4 -3 -5
28 -8 68 -8 40 1 64 4 53 6 -28 7 -35 21 -35 76 l0 47 85 0 c81 0 85 -1 86
-22 1 -21 2 -21 6 -3 3 11 9 24 14 29 12 13 11 29 -1 21 -5 -3 -10 2 -10 11 0
14 -3 15 -12 6 -7 -7 -21 -12 -32 -13 -21 0 -21 0 -1 -9 18 -8 17 -9 -8 -9
-16 -1 -26 3 -22 9 3 6 -3 10 -14 10 -15 0 -21 8 -24 33 -3 28 -4 26 -5 -10
-2 -40 -4 -43 -29 -42 -25 0 -26 1 -8 9 19 8 19 9 -1 9 -14 1 -24 9 -28 24 -9
36 -7 67 6 67 6 0 8 3 5 7 -4 3 -2 12 4 19 7 9 5 14 -10 19 -12 3 -21 15 -21
25 0 10 -7 26 -16 34 -8 9 -11 16 -5 16 5 0 13 -4 16 -10 3 -5 11 -10 16 -10
6 0 7 5 4 10 -3 6 -1 10 4 10 14 0 14 -6 -1 -33 -10 -20 -10 -21 6 -8 15 13
19 13 26 0 7 -10 3 -16 -13 -21 -22 -6 -22 -6 -1 -7 24 -1 38 -25 35 -55 -2
-11 2 -16 8 -12 28 17 -8 108 -61 156 -34 32 -111 49 -153 35z"/>
<path d="M3090 970 c-9 -6 -10 -10 -3 -10 6 0 15 5 18 10 8 12 4 12 -15 0z"/>
<path d="M1330 949 c0 -5 -4 -7 -10 -4 -5 3 -10 1 -10 -4 0 -6 7 -11 15 -11 8
0 15 7 15 15 0 8 -2 15 -5 15 -3 0 -5 -5 -5 -11z"/>
<path d="M1499 943 c-13 -15 -12 -15 9 -4 23 12 28 21 13 21 -5 0 -15 -7 -22
-17z"/>
<path d="M2410 951 c0 -13 34 -24 38 -12 6 19 22 12 22 -10 0 -15 -5 -19 -17
-15 -10 3 -25 1 -33 -4 -11 -7 -4 -10 27 -10 34 0 41 3 37 15 -4 8 -1 15 6 15
6 0 14 -8 17 -19 5 -21 90 -38 107 -21 7 7 -7 10 -42 10 -41 0 -52 3 -52 16 0
10 6 14 15 10 9 -3 15 0 15 10 0 20 -30 30 -42 13 -7 -11 -11 -11 -15 -1 -5
14 -83 17 -83 3z"/>
<path d="M1573 937 c-39 -15 -53 -28 -27 -26 60 6 83 -4 140 -62 32 -31 48
-152 22 -162 -10 -4 -10 -8 1 -16 8 -5 18 -31 22 -58 5 -30 6 -6 4 62 -2 61
-7 122 -10 136 -6 23 -3 27 19 31 19 4 30 0 36 -13 17 -31 12 -57 -12 -62 -22
-4 -22 -4 -2 -6 15 -1 24 -10 28 -28 4 -16 9 -36 12 -45 3 -11 0 -16 -13 -14
-10 2 -12 1 -5 -1 7 -3 12 -23 12 -54 0 -27 4 -49 9 -49 5 0 6 19 4 43 -6 54
14 76 52 59 19 -9 25 -19 25 -44 0 -25 3 -29 10 -18 5 8 7 22 4 32 -2 9 0 19
6 23 23 14 7 24 -42 27 l-53 3 -6 55 c-6 59 -29 116 -45 114 -5 -1 -24 -4 -41
-7 -19 -4 -33 -2 -33 3 0 6 8 10 18 11 12 1 9 4 -8 10 -20 7 -16 8 18 5 42 -4
57 6 25 18 -10 4 -34 15 -53 26 -40 22 -71 24 -117 7z"/>
<path d="M2595 941 c-10 -17 4 -31 22 -24 13 5 15 2 9 -20 -6 -26 -5 -26 64
-33 75 -7 91 -17 67 -41 -11 -12 -19 -13 -36 -4 -17 10 -21 9 -21 -4 0 -8 -8
-15 -17 -15 -13 0 -14 -3 -5 -12 19 -19 14 -30 -10 -23 -18 6 -20 4 -13 -11 4
-11 8 -30 9 -44 1 -20 -3 -25 -20 -23 -18 2 -21 -2 -17 -18 5 -17 2 -20 -13
-17 -16 3 -19 12 -19 61 0 47 3 57 17 57 11 0 15 -5 12 -14 -3 -8 -1 -17 5
-21 7 -4 11 5 11 24 0 20 -8 36 -27 50 -56 45 -104 38 -137 -20 -16 -28 -17
-31 -3 -21 9 8 19 22 22 33 8 25 37 24 60 -1 13 -15 22 -17 36 -10 22 12 29
13 29 1 0 -5 -9 -11 -20 -14 -16 -4 -20 -14 -20 -50 0 -65 -7 -78 -39 -71 -24
5 -25 4 -7 -10 16 -13 17 -18 5 -45 -8 -17 -20 -30 -28 -28 -21 3 -24 -18 -5
-37 17 -18 13 -46 -8 -46 -7 0 -22 8 -33 17 -16 13 -17 15 -2 10 9 -4 17 -2
17 3 0 6 -13 10 -30 10 -21 0 -28 -4 -24 -14 8 -20 48 -38 75 -34 20 2 24 9
24 38 0 28 5 35 25 41 16 4 19 7 8 8 -22 1 -22 0 -2 39 13 27 21 32 52 32 30
0 41 6 59 33 14 21 20 40 17 55 -4 12 -2 22 4 22 6 0 12 10 14 22 2 16 12 24
37 29 18 4 36 11 40 16 3 4 23 17 44 28 36 19 53 43 22 31 -9 -3 -24 3 -35 14
-14 14 -20 16 -20 7 0 -8 10 -19 23 -25 21 -11 21 -12 -8 -9 -25 2 -31 7 -33
30 -2 15 -7 27 -13 27 -5 0 -8 -10 -6 -22 1 -17 -4 -24 -20 -26 -13 -2 -23 2
-23 8 0 8 -8 10 -21 7 -24 -6 -45 10 -51 39 -4 21 -33 31 -43 15z"/>
<path d="M2662 931 c-10 -6 -10 -10 3 -21 13 -11 16 -11 13 0 -2 7 3 15 10 17
7 3 11 -1 10 -9 -2 -7 3 -12 11 -10 8 2 17 -2 21 -8 4 -7 9 -1 12 14 5 26 -5
35 -18 15 -4 -8 -9 -8 -17 0 -13 13 -27 14 -45 2z"/>
<path d="M1920 919 c0 -5 5 -7 10 -4 6 3 10 8 10 11 0 2 -4 4 -10 4 -5 0 -10
-5 -10 -11z"/>
<path d="M806 880 c9 -16 17 -30 19 -30 2 0 -1 14 -6 30 -6 17 -15 30 -19 30
-5 0 -2 -13 6 -30z"/>
<path d="M1390 895 c0 -9 6 -12 15 -9 8 4 12 10 9 15 -8 14 -24 10 -24 -6z"/>
<path d="M845 890 c-3 -5 -4 -10 -1 -10 2 0 11 -3 20 -6 11 -4 16 -1 16 10 0
18 -25 22 -35 6z"/>
<path d="M1470 869 c-31 -43 -20 -45 19 -4 22 24 28 35 17 35 -8 0 -24 -14
-36 -31z"/>
<path d="M1935 873 c-36 -36 -45 -62 -43 -125 1 -63 13 -43 21 36 6 58 27 96
54 96 21 0 73 -42 89 -72 8 -15 15 -44 16 -65 1 -37 1 -37 5 -5 2 17 9 32 14
32 6 0 3 7 -6 16 -9 10 -12 20 -7 23 15 10 -5 51 -30 61 -22 8 -21 9 7 10 50
1 7 20 -46 20 -37 0 -52 -5 -74 -27z"/>
<path d="M1810 865 c0 -8 7 -15 15 -15 8 0 15 7 15 15 0 8 -7 15 -15 15 -8 0
-15 -7 -15 -15z"/>
<path d="M1862 868 c2 -6 10 -14 16 -16 7 -2 10 2 6 12 -7 18 -28 22 -22 4z"/>
<path d="M2090 878 c0 -4 9 -22 20 -40 14 -23 16 -35 8 -45 -8 -10 -6 -13 10
-13 16 0 20 4 15 18 -8 21 -53 89 -53 80z"/>
<path d="M2236 849 c-26 -30 -35 -56 -16 -44 6 3 10 12 10 20 0 21 31 27 58 9
18 -12 26 -13 32 -4 5 8 9 7 13 -5 4 -9 3 -13 -3 -10 -6 3 -10 -3 -10 -14 0
-18 4 -20 33 -14 42 8 43 9 27 38 -14 26 -65 55 -98 55 -11 0 -32 -14 -46 -31z"/>
<path d="M1340 855 c0 -9 5 -15 11 -13 6 2 11 8 11 13 0 5 -5 11 -11 13 -6 2
-11 -4 -11 -13z"/>
<path d="M770 850 c0 -5 5 -10 10 -10 6 0 10 5 10 10 0 6 -4 10 -10 10 -5 0
-10 -4 -10 -10z"/>
<path d="M947 846 c-4 -10 -5 -21 -2 -24 9 -9 17 6 13 25 -3 17 -4 17 -11 -1z"/>
<path d="M2145 840 c3 -5 10 -10 16 -10 5 0 9 5 9 10 0 6 -7 10 -16 10 -8 0
-12 -4 -9 -10z"/>
<path d="M2401 833 c0 -12 2 -14 6 -4 5 11 7 11 15 0 8 -12 9 -12 6 0 -6 22
-28 25 -27 4z"/>
<path d="M821 824 c0 -11 3 -14 6 -6 3 7 2 16 -1 19 -3 4 -6 -2 -5 -13z"/>
<path d="M870 812 c0 -5 7 -13 16 -16 10 -4 14 -1 12 6 -5 15 -28 23 -28 10z"/>
<path d="M1740 810 c0 -5 5 -10 11 -10 5 0 7 5 4 10 -3 6 -8 10 -11 10 -2 0
-4 -4 -4 -10z"/>
<path d="M1268 793 c7 -3 16 -2 19 1 4 3 -2 6 -13 5 -11 0 -14 -3 -6 -6z"/>
<path d="M1426 775 c-3 -8 -1 -15 4 -15 6 0 10 7 10 15 0 8 -2 15 -4 15 -2 0
-6 -7 -10 -15z"/>
<path d="M1836 775 c4 -8 8 -15 10 -15 2 0 4 7 4 15 0 8 -4 15 -10 15 -5 0 -7
-7 -4 -15z"/>
<path d="M2204 764 c-4 -14 -2 -30 3 -35 5 -5 9 4 10 26 1 41 -4 45 -13 9z"/>
<path d="M937 751 c-4 -16 -10 -21 -19 -15 -7 4 -6 -1 3 -12 23 -26 35 -134
17 -145 -9 -6 -6 -9 10 -9 13 0 21 4 17 9 -3 6 19 12 52 14 l58 3 -57 2 -57 2
-6 44 c-4 27 -2 52 5 66 7 14 8 25 3 29 -6 3 -12 13 -15 21 -3 10 -6 7 -11 -9z"/>
<path d="M2122 758 c9 -7 19 -24 21 -38 3 -15 4 -10 4 13 -1 30 -5 37 -21 37
-18 0 -18 -1 -4 -12z"/>
<path d="M2170 756 c0 -9 5 -16 10 -16 6 0 10 4 10 9 0 6 -4 13 -10 16 -5 3
-10 -1 -10 -9z"/>
<path d="M2380 752 c0 -11 4 -23 8 -26 10 -6 9 30 -1 40 -4 4 -7 -2 -7 -14z"/>
<path d="M2420 756 c0 -9 5 -16 10 -16 6 0 10 4 10 9 0 6 -4 13 -10 16 -5 3
-10 -1 -10 -9z"/>
<path d="M2322 678 c-1 -42 3 -80 8 -83 6 -4 10 5 10 19 0 24 4 26 43 26 55 0
73 11 58 36 -8 14 -11 15 -11 4 0 -13 -1 -13 -10 0 -9 13 -10 13 -10 0 0 -11
-10 -16 -37 -15 -37 0 -38 1 -44 45 -5 38 -6 32 -7 -32z"/>
<path d="M2473 685 c0 -22 2 -30 4 -17 2 12 2 30 0 40 -3 9 -5 -1 -4 -23z"/>
<path d="M2208 693 c-7 -25 -36 -31 -56 -11 -9 9 -12 9 -12 0 0 -16 -57 -15
-63 1 -3 6 -5 -8 -5 -33 0 -25 3 -35 5 -22 4 21 9 22 74 20 73 -3 80 1 69 42
-6 25 -6 25 -12 3z"/>
<path d="M830 671 c-12 -23 -14 -84 -2 -77 5 3 7 19 4 36 -3 22 0 30 11 30 8
0 17 7 21 15 8 22 -21 19 -34 -4z"/>
<path d="M1320 635 c0 -25 4 -45 9 -45 4 0 6 11 3 25 -3 18 0 25 12 25 22 0
20 13 -4 28 -19 11 -20 10 -20 -33z"/>
<path d="M1836 641 c-3 -5 1 -11 9 -14 9 -4 12 -1 8 9 -6 16 -10 17 -17 5z"/>
<path d="M850 630 c0 -5 7 -10 15 -10 8 0 15 5 15 10 0 6 -7 10 -15 10 -8 0
-15 -4 -15 -10z"/>
<path d="M1370 629 c0 -5 5 -7 10 -4 6 3 10 8 10 11 0 2 -4 4 -10 4 -5 0 -10
-5 -10 -11z"/>
<path d="M1431 624 c0 -11 3 -14 6 -6 3 7 2 16 -1 19 -3 4 -6 -2 -5 -13z"/>
<path d="M2204 608 c-7 -10 12 -19 29 -12 8 3 21 -1 28 -8 8 -8 22 -17 32 -21
10 -4 16 -11 13 -16 -3 -5 1 -14 9 -21 13 -11 20 -9 40 10 31 29 32 42 3 40
-57 -5 -80 0 -85 20 -4 14 -13 19 -35 17 -16 -1 -32 -5 -34 -9z m146 -62 c0
-11 -19 -15 -25 -6 -3 5 1 10 9 10 9 0 16 -2 16 -4z"/>
<path d="M2394 600 c0 -10 4 -17 7 -14 20 12 18 -20 -1 -41 -23 -25 -20 -45 8
-45 14 0 15 2 2 10 -12 8 -12 11 1 27 28 32 29 40 6 61 -22 20 -23 20 -23 2z"/>
<path d="M2116 595 c5 -13 -10 -15 -107 -14 -139 2 -154 1 -145 -8 3 -4 44 -7
90 -7 47 -1 88 -5 92 -9 12 -11 -16 -27 -48 -27 -14 0 -29 -6 -32 -12 -5 -10
-7 -10 -12 0 -7 14 -295 16 -329 2 -12 -4 51 -8 148 -8 165 0 196 -4 167 -22
-13 -8 -12 -10 3 -10 10 0 27 5 38 10 13 7 19 7 19 0 0 -5 11 -10 24 -10 13 0
26 -7 30 -15 3 -8 12 -12 20 -9 8 3 17 1 21 -5 3 -6 -2 -11 -13 -11 -28 0 -34
-11 -16 -31 18 -20 13 -34 -16 -42 -15 -4 -20 -1 -18 11 2 12 -6 18 -29 20
-29 3 -32 1 -35 -30 l-4 -33 -17 37 c-19 41 -47 66 -105 92 -36 17 -47 17 -87
6 -24 -7 -43 -16 -40 -20 3 -4 -3 -7 -12 -6 -9 0 -33 -23 -56 -57 -38 -55 -41
-57 -75 -51 -32 6 -34 5 -27 -16 5 -15 2 -25 -6 -31 -10 -6 -6 -9 13 -9 14 0
34 -3 44 -7 12 -4 15 -3 10 5 -4 7 -16 12 -27 12 -10 0 -19 7 -19 15 0 9 9 15
23 15 28 0 64 -34 48 -45 -15 -8 -14 -35 1 -35 6 0 8 3 5 7 -4 3 0 15 10 25 9
10 11 18 5 18 -6 0 -13 8 -17 19 -6 21 15 83 22 63 3 -7 0 -19 -6 -26 -8 -10
-5 -15 13 -24 27 -12 66 -89 66 -131 0 -25 5 -30 43 -39 49 -12 117 -12 117 1
0 5 -19 8 -42 7 -93 -5 -87 -10 -122 90 -9 25 -27 57 -40 71 -29 32 -22 45 29
59 l40 10 -50 -4 c-27 -3 -44 -2 -37 1 6 2 12 11 12 19 0 8 10 14 23 14 18 0
19 -2 7 -10 -10 -7 7 -9 55 -8 63 2 64 2 18 5 -43 3 -53 7 -53 22 0 29 61 36
120 15 35 -13 54 -28 73 -57 15 -22 23 -45 19 -51 -3 -6 -5 -22 -3 -35 3 -25
4 -25 -48 -4 -11 5 -11 2 -2 -15 8 -15 8 -22 1 -22 -6 0 -8 -10 -4 -24 4 -17
1 -25 -9 -28 -13 -2 -13 -6 -3 -20 11 -15 14 -11 26 32 10 37 19 50 34 52 15
2 20 9 19 26 -2 14 3 22 12 22 9 0 15 -9 15 -23 0 -39 61 -76 73 -44 4 10 7
10 18 -1 18 -17 46 -15 53 4 5 14 4 15 -9 4 -12 -10 -18 -10 -30 0 -8 7 -12
16 -9 21 8 13 -40 11 -53 -2 -20 -20 -36 1 -17 22 15 17 16 19 1 19 -10 0 -14
5 -11 15 12 30 92 14 121 -24 11 -14 12 -14 13 2 0 10 -12 23 -27 29 -38 16
-37 16 -24 32 7 8 10 24 7 34 -5 15 -1 21 16 25 l22 6 -23 25 c-13 14 -27 23
-32 21 -4 -3 -11 0 -14 6 -4 5 -13 8 -20 5 -7 -2 -16 2 -19 10 -3 9 1 14 14
14 11 0 24 9 30 20 6 12 21 20 35 20 13 0 29 8 35 18 10 15 11 15 7 -5 -4 -17
1 -22 22 -26 27 -5 61 7 61 23 0 6 -4 10 -10 10 -5 0 -10 -4 -10 -10 0 -5 -9
-10 -20 -10 -11 0 -19 3 -18 8 0 4 -2 15 -6 25 -10 21 -48 24 -40 2z m-96
-210 c0 -3 -9 -15 -20 -27 -20 -21 -20 -21 -20 -2 0 12 3 24 7 27 8 8 33 9 33
2z"/>
<path d="M410 590 c0 -5 12 -10 26 -10 14 0 23 4 19 10 -3 6 -15 10 -26 10
-10 0 -19 -4 -19 -10z"/>
<path d="M525 579 c-24 -4 3 -6 65 -6 103 0 110 3 20 9 -25 2 -63 0 -85 -3z"/>
<path d="M1470 580 c0 -5 -35 -11 -77 -13 -76 -3 -75 -3 21 -5 86 -2 97 0 86
13 -14 17 -30 20 -30 5z"/>
<path d="M713 573 c9 -2 23 -2 30 0 6 3 -1 5 -18 5 -16 0 -22 -2 -12 -5z"/>
<path d="M773 573 c9 -2 23 -2 30 0 6 3 -1 5 -18 5 -16 0 -22 -2 -12 -5z"/>
<path d="M858 573 c12 -2 32 -2 45 0 12 2 2 4 -23 4 -25 0 -35 -2 -22 -4z"/>
<path d="M1000 570 c0 -5 7 -10 16 -10 8 0 12 5 9 10 -3 6 -10 10 -16 10 -5 0
-9 -4 -9 -10z"/>
<path d="M1060 570 c0 -5 7 -10 16 -10 8 0 12 5 9 10 -3 6 -10 10 -16 10 -5 0
-9 -4 -9 -10z"/>
<path d="M1140 570 c0 -5 5 -10 11 -10 5 0 7 5 4 10 -3 6 -8 10 -11 10 -2 0
-4 -4 -4 -10z"/>
<path d="M1530 570 c0 -5 5 -10 11 -10 5 0 7 5 4 10 -3 6 -8 10 -11 10 -2 0
-4 -4 -4 -10z"/>
<path d="M1567 568 c-7 -4 22 -7 63 -7 79 1 78 6 -3 11 -27 2 -54 0 -60 -4z"/>
<path d="M465 529 c7 -20 6 -20 -20 -3 -20 13 -29 14 -38 5 -9 -10 -9 -11 3
-6 10 3 26 -5 40 -20 13 -14 29 -25 36 -25 20 0 24 -29 6 -40 -16 -11 -15 -11
1 -6 10 3 22 6 27 6 5 0 3 14 -3 30 -6 17 -17 28 -24 26 -7 -3 -11 3 -10 13 1
21 57 28 57 8 0 -7 4 -6 11 3 8 11 12 12 16 3 6 -17 25 -16 49 3 19 15 18 15
-3 11 -13 -3 -26 -1 -29 4 -3 5 -32 9 -65 9 -57 0 -60 -1 -54 -21z"/>
<path d="M675 533 c16 -3 34 -11 40 -18 8 -12 17 -11 50 5 l40 19 -80 -1 c-44
0 -67 -3 -50 -5z"/>
<path d="M990 532 c0 -5 28 -7 63 -5 95 6 100 11 15 12 -43 0 -78 -3 -78 -7z"/>
<path d="M868 523 c7 -3 16 -2 19 1 4 3 -2 6 -13 5 -11 0 -14 -3 -6 -6z"/>
<path d="M1205 520 c-3 -6 1 -7 9 -4 18 7 21 14 7 14 -6 0 -13 -4 -16 -10z"/>
<path d="M1240 516 c0 -8 -8 -20 -17 -25 -10 -6 -13 -11 -6 -11 6 0 18 7 27
15 10 10 35 15 82 15 86 0 76 11 -16 17 -58 4 -70 2 -70 -11z"/>
<path d="M2248 523 c6 -2 18 -2 25 0 6 3 1 5 -13 5 -14 0 -19 -2 -12 -5z"/>
<path d="M678 513 c7 -3 16 -2 19 1 4 3 -2 6 -13 5 -11 0 -14 -3 -6 -6z"/>
<path d="M1068 513 c7 -3 16 -2 19 1 4 3 -2 6 -13 5 -11 0 -14 -3 -6 -6z"/>
<path d="M1118 513 c12 -2 30 -2 40 0 9 3 -1 5 -23 4 -22 0 -30 -2 -17 -4z"/>
<path d="M1408 513 c7 -3 16 -2 19 1 4 3 -2 6 -13 5 -11 0 -14 -3 -6 -6z"/>
<path d="M1508 513 c7 -3 16 -2 19 1 4 3 -2 6 -13 5 -11 0 -14 -3 -6 -6z"/>
<path d="M900 482 c19 -10 37 -17 39 -15 9 6 -35 32 -54 33 -14 0 -10 -5 15
-18z"/>
<path d="M1077 473 c4 -11 2 -14 -5 -9 -7 4 -12 2 -12 -4 0 -7 7 -9 16 -6 9 3
18 6 20 6 11 0 2 18 -10 23 -11 4 -13 1 -9 -10z"/>
<path d="M1388 483 c7 -3 16 -2 19 1 4 3 -2 6 -13 5 -11 0 -14 -3 -6 -6z"/>
<path d="M730 473 c-8 -4 -21 -12 -28 -20 -7 -7 -20 -13 -29 -13 -10 0 -13 -6
-9 -15 3 -10 1 -15 -7 -13 -21 4 -65 -32 -76 -63 -12 -35 -4 -39 9 -4 13 33
23 32 63 -9 38 -38 47 -69 47 -162 0 -36 4 -64 10 -64 6 0 9 26 7 63 l-2 62
45 6 c41 6 42 6 10 8 -19 1 -40 5 -46 9 -18 12 -23 39 -11 52 9 10 8 12 -5 7
-12 -4 -21 1 -29 16 -7 12 -17 25 -23 29 -7 5 -6 8 4 8 13 0 13 1 0 10 -22 14
-4 24 40 23 22 -1 40 2 40 7 0 5 35 6 78 3 87 -6 105 -17 133 -78 10 -22 18
-33 18 -25 1 8 -13 39 -30 68 -22 39 -35 52 -46 48 -26 -11 -143 5 -143 19 0
15 58 11 103 -7 15 -6 30 -8 34 -5 3 4 0 9 -8 11 -114 38 -121 40 -149 29z
m10 -43 c0 -5 -10 -10 -22 -9 -22 0 -22 1 -3 9 11 5 21 9 23 9 1 1 2 -3 2 -9z"/>
<path d="M1180 470 c-9 -6 -10 -10 -3 -10 6 0 15 5 18 10 8 12 4 12 -15 0z"/>
<path d="M1634 444 c-19 -19 -34 -41 -33 -47 0 -7 6 -3 12 7 7 11 25 32 42 48
16 15 26 28 21 28 -5 0 -24 -16 -42 -36z"/>
<path d="M1215 444 c-42 -27 -105 -109 -105 -136 0 -22 -29 -50 -42 -42 -7 4
-8 2 -4 -4 4 -7 -7 -12 -31 -15 -26 -2 -19 -4 24 -5 34 -1 65 -7 69 -13 5 -8
10 -6 16 6 7 11 6 21 -1 28 -8 8 -11 7 -11 -3 0 -12 -2 -12 -9 -2 -10 16 8 72
30 94 9 9 36 22 60 29 24 7 51 18 60 26 8 7 34 13 57 13 30 0 44 5 51 19 15
26 5 31 -64 31 -49 0 -69 -5 -100 -26z m75 -3 c0 -16 -32 -36 -76 -47 -24 -6
-44 -7 -44 -2 0 4 9 8 21 8 11 0 18 4 15 9 -3 4 7 6 22 4 23 -3 24 -2 7 6 -18
9 -17 10 8 10 15 1 27 6 27 11 0 6 5 10 10 10 6 0 10 -4 10 -9z m53 -8 c-7 -2
-21 -2 -30 0 -10 3 -4 5 12 5 17 0 24 -2 18 -5z m-236 -179 c-3 -3 -12 -4 -19
-1 -8 3 -5 6 6 6 11 1 17 -2 13 -5z"/>
<path d="M1500 453 c0 -13 5 -23 10 -23 13 0 13 11 0 30 -8 12 -10 11 -10 -7z"/>
<path d="M1407 433 c5 -12 3 -14 -7 -8 -8 5 -11 4 -6 -3 4 -6 -5 -12 -21 -15
-22 -4 -20 -4 7 -4 47 1 58 -7 82 -57 20 -43 19 -26 -4 35 -12 33 -39 69 -52
69 -3 0 -2 -7 1 -17z"/>
<path d="M2308 443 c7 -3 16 -2 19 1 4 3 -2 6 -13 5 -11 0 -14 -3 -6 -6z"/>
<path d="M1758 433 c7 -3 16 -2 19 1 4 3 -2 6 -13 5 -11 0 -14 -3 -6 -6z"/>
<path d="M1556 423 c-11 -11 -6 -23 9 -23 8 0 15 4 15 9 0 13 -16 22 -24 14z"/>
<path d="M2240 415 c0 -9 7 -18 15 -22 23 -8 24 0 3 20 -15 14 -18 15 -18 2z"/>
<path d="M375 410 c-11 -5 -15 -9 -10 -9 6 -1 3 -5 -4 -10 -9 -6 -22 -6 -32 0
-10 5 -25 9 -35 9 -13 0 -14 -3 -4 -15 7 -8 21 -15 31 -15 11 0 19 -4 19 -9 0
-15 -18 -23 -25 -11 -11 18 -23 11 -18 -10 6 -23 23 -26 41 -8 14 14 16 -3 2
-20 -5 -7 2 -1 18 13 21 20 24 27 13 34 -11 7 -9 13 8 30 29 29 40 26 53 -10
7 -22 14 -27 21 -20 16 16 47 13 47 -3 0 -8 -10 -18 -22 -22 -19 -6 -20 -7 -4
-16 12 -7 14 -13 7 -21 -7 -9 -2 -16 15 -24 26 -12 32 -5 12 15 -9 9 -9 12 0
12 7 0 12 5 12 10 0 6 -8 10 -17 10 -15 0 -15 3 4 23 55 57 71 77 63 77 -5 0
-18 -12 -29 -26 -19 -24 -22 -25 -36 -10 -18 18 -45 21 -45 6 0 -5 -5 -10 -11
-10 -6 0 -8 8 -5 18 4 13 0 17 -22 18 -15 1 -36 -2 -47 -6z"/>
<path d="M1110 398 c-12 -22 -12 -22 6 -6 10 10 15 20 12 24 -4 3 -12 -5 -18
-18z"/>
<path d="M823 393 c9 -2 25 -2 35 0 9 3 1 5 -18 5 -19 0 -27 -2 -17 -5z"/>
<path d="M1868 393 c6 -2 18 -2 25 0 6 3 1 5 -13 5 -14 0 -19 -2 -12 -5z"/>
<path d="M686 381 c-3 -5 0 -11 7 -14 8 -3 14 1 14 9 0 16 -13 19 -21 5z"/>
<path d="M738 383 c12 -2 30 -2 40 0 9 3 -1 5 -23 4 -22 0 -30 -2 -17 -4z"/>
<path d="M1301 376 c8 -8 88 -10 95 -3 4 4 -17 7 -46 7 -29 0 -51 -2 -49 -4z"/>
<path d="M1005 360 c-3 -5 -1 -10 4 -10 6 0 11 5 11 10 0 6 -2 10 -4 10 -3 0
-8 -4 -11 -10z"/>
<path d="M1180 360 c-13 -9 -13 -10 0 -10 8 0 25 -15 37 -32 19 -26 22 -28 20
-10 0 12 -3 19 -6 17 -2 -3 -10 3 -17 13 -9 13 -9 19 -1 24 8 5 7 8 -3 8 -8 0
-22 -5 -30 -10z"/>
<path d="M1260 366 c0 -2 7 -7 16 -10 8 -3 12 -2 9 4 -6 10 -25 14 -25 6z"/>
<path d="M1838 363 c6 -2 18 -2 25 0 6 3 1 5 -13 5 -14 0 -19 -2 -12 -5z"/>
<path d="M408 353 c7 -3 16 -2 19 1 4 3 -2 6 -13 5 -11 0 -14 -3 -6 -6z"/>
<path d="M1263 333 c9 -2 25 -2 35 0 9 3 1 5 -18 5 -19 0 -27 -2 -17 -5z"/>
<path d="M370 305 c-18 -13 -37 -22 -41 -19 -5 3 -9 0 -9 -5 0 -14 27 -14 36
0 3 6 15 9 25 6 12 -3 19 0 19 9 0 8 5 14 10 14 6 0 10 5 10 10 0 16 -14 12
-50 -15z"/>
<path d="M788 323 c12 -2 30 -2 40 0 9 3 -1 5 -23 4 -22 0 -30 -2 -17 -4z"/>
<path d="M878 323 c12 -2 30 -2 40 0 9 3 -1 5 -23 4 -22 0 -30 -2 -17 -4z"/>
<path d="M1848 323 c12 -2 30 -2 40 0 9 3 -1 5 -23 4 -22 0 -30 -2 -17 -4z"/>
<path d="M1288 303 c23 -2 59 -2 80 0 20 2 1 4 -43 4 -44 0 -61 -2 -37 -4z"/>
<path d="M550 289 c0 -5 5 -7 10 -4 6 3 10 8 10 11 0 2 -4 4 -10 4 -5 0 -10
-5 -10 -11z"/>
<path d="M803 293 c9 -2 23 -2 30 0 6 3 -1 5 -18 5 -16 0 -22 -2 -12 -5z"/>
<path d="M1465 280 c-10 -11 -14 -21 -9 -21 5 -1 19 -3 32 -4 12 -1 30 -9 40
-17 9 -9 28 -19 42 -22 16 -5 20 -4 12 2 -7 5 -11 15 -9 23 2 8 2 11 0 7 -8
-14 -33 -9 -39 7 -4 8 -10 13 -14 10 -5 -3 -15 4 -23 15 -14 20 -14 20 -32 0z"/>
<path d="M968 261 c-3 -18 -1 -34 4 -37 4 -3 8 4 8 15 0 15 7 21 23 22 20 1
20 2 2 6 -11 3 -23 10 -26 15 -4 6 -9 -4 -11 -21z"/>
<path d="M1758 283 c18 -2 45 -2 60 0 15 2 0 4 -33 4 -33 0 -45 -2 -27 -4z"/>
<path d="M554 243 c4 -22 1 -33 -11 -37 -20 -8 -43 11 -43 36 0 14 -5 18 -16
14 -9 -3 -18 -6 -20 -6 -2 0 8 -14 23 -30 26 -29 59 -37 74 -16 4 4 16 5 28 1
17 -5 19 -10 11 -20 -16 -19 -1 -43 39 -62 20 -9 46 -27 58 -40 16 -19 35 -25
77 -29 56 -4 56 -4 55 23 -2 25 -2 25 -6 5 -4 -18 -8 -21 -18 -12 -8 7 -15 7
-19 1 -9 -14 -57 11 -51 27 3 9 -1 11 -15 7 -14 -5 -23 1 -35 24 -16 32 -32
43 -21 16 3 -8 1 -15 -5 -15 -6 0 -13 9 -16 20 -6 22 -23 28 -23 8 0 -9 -3 -9
-12 0 -9 9 -8 16 5 30 21 23 22 36 2 28 -21 -8 -19 11 2 23 10 5 15 13 10 17
-4 4 -15 0 -25 -9 -18 -17 -35 -12 -46 13 -3 8 -4 1 -2 -17z"/>
<path d="M889 249 c-9 -6 -1 -9 24 -9 20 0 37 4 37 9 0 11 -44 11 -61 0z"/>
<path d="M1244 246 c-3 -8 -5 -20 -3 -27 5 -39 -2 -61 -16 -55 -8 3 -15 1 -15
-4 0 -6 -4 -10 -10 -10 -5 0 -10 7 -10 15 0 8 -8 15 -19 15 -14 0 -17 -6 -13
-25 2 -14 0 -25 -5 -25 -19 0 -33 26 -34 64 l-1 41 -8 -34 c-5 -19 -6 -41 -2
-50 4 -13 1 -12 -16 3 -18 16 -22 16 -22 4 0 -9 7 -21 15 -28 8 -7 15 -19 15
-26 0 -21 -28 -17 -40 6 -15 27 -34 25 -48 -5 -6 -14 -19 -25 -27 -25 -12 0
-13 5 -7 18 5 9 6 40 2 67 l-8 50 1 -59 c0 -37 -4 -61 -11 -64 -7 -2 -12 -13
-12 -25 -1 -21 -1 -21 -14 -4 -9 12 -16 14 -21 8 -3 -6 1 -18 10 -27 15 -15
17 -15 33 0 28 26 79 66 86 66 3 0 6 -6 6 -14 0 -7 12 -16 26 -19 20 -3 28 0
31 14 5 19 14 23 46 20 13 -2 17 6 18 31 1 23 3 26 6 11 2 -13 11 -23 18 -23
28 0 65 24 65 42 0 12 7 18 23 18 13 0 28 5 35 12 9 9 12 9 12 -3 0 -8 -16
-29 -35 -47 -34 -33 -34 -33 -14 -53 11 -11 25 -17 32 -12 7 4 20 6 30 5 9 -2
17 1 17 7 0 5 10 11 23 13 16 2 24 12 28 38 4 19 7 27 8 17 0 -10 8 -29 17
-42 9 -14 12 -25 8 -26 -18 -2 42 -17 73 -18 21 -1 33 -7 35 -18 2 -10 13 -17
30 -17 23 -1 25 1 15 19 -6 13 -12 15 -15 7 -6 -20 -22 -14 -22 9 0 19 -4 21
-32 15 -30 -6 -31 -6 -14 13 15 16 22 18 37 8 10 -6 21 -8 25 -5 12 13 -8 28
-47 34 -23 4 -39 12 -39 20 0 8 -4 14 -10 14 -5 0 -7 -6 -4 -13 3 -8 -3 -20
-12 -28 -16 -12 -17 -12 -11 4 4 11 1 17 -9 17 -8 0 -14 6 -13 13 3 26 -2 37
-16 37 -14 0 -20 -16 -17 -50 3 -30 -7 -43 -22 -31 -11 10 -15 8 -18 -5 -4
-24 -55 -28 -61 -4 -5 20 10 40 30 40 7 0 13 9 13 21 0 11 5 29 11 41 16 30 5
31 -25 3 -33 -30 -46 -32 -46 -5 0 11 -5 20 -11 20 -5 0 -8 -4 -4 -9 3 -5 0
-13 -6 -17 -8 -5 -10 1 -7 20 6 28 1 35 -8 12z m256 -126 c-20 -13 -43 -13
-35 0 3 6 16 10 28 10 18 0 19 -2 7 -10z"/>
<path d="M1666 235 c19 -14 19 -15 -5 -34 -24 -18 -24 -19 -4 -40 22 -23 83
-40 83 -23 0 6 -7 9 -15 6 -8 -4 -15 -1 -15 5 0 6 -9 11 -20 11 -25 0 -26 17
-3 43 17 18 17 19 -2 33 -25 19 -44 18 -19 -1z"/>
<path d="M748 174 c-11 -10 3 -34 21 -34 14 -1 13 -3 -3 -15 -17 -13 -17 -15
-4 -15 18 0 48 26 48 41 0 6 -9 8 -19 4 -12 -4 -23 0 -28 10 -5 8 -12 13 -15
9z"/>
<path d="M851 108 c-6 -16 -5 -26 3 -33 7 -5 21 -23 31 -38 13 -21 21 -25 29
-17 8 8 6 14 -6 21 -10 6 -18 19 -18 31 0 14 -5 18 -15 14 -12 -4 -14 0 -9 19
8 31 -4 33 -15 3z"/>
<path d="M1590 104 c0 -2 9 -13 20 -24 11 -11 20 -16 20 -11 0 5 3 16 6 24 4
10 -2 15 -20 15 -14 0 -26 -2 -26 -4z"/>
</g>
</svg>
